<svg width="23" height="23" viewBox="0 0 23 23" fill="none" xmlns="http://www.w3.org/2000/svg">
<mask id="mask0_54_1334" style="mask-type:alpha" maskUnits="userSpaceOnUse" x="0" y="0" width="23" height="23">
<rect x="0.531982" y="0.133972" width="22.1495" height="22.1495" fill="#D9D9D9"/>
</mask>
<g mask="url(#mask0_54_1334)">
<path d="M17.1441 14.6695C17.1441 16.2692 16.5827 17.6305 15.4598 18.7534C14.337 19.8762 12.9757 20.4376 11.376 20.4376C9.77632 20.4376 8.41505 19.8762 7.29219 18.7534C6.16934 17.6305 5.60791 16.2692 5.60791 14.6695V6.13276C5.60791 4.97915 6.01168 3.99857 6.81921 3.19104C7.62674 2.3835 8.60732 1.97974 9.76094 1.97974C10.9146 1.97974 11.8951 2.3835 12.7027 3.19104C13.5102 3.99857 13.914 4.97915 13.914 6.13276V14.2081C13.914 14.9156 13.6679 15.5155 13.1757 16.0077C12.6834 16.5 12.0836 16.7461 11.376 16.7461C10.6685 16.7461 10.0686 16.5 9.57636 16.0077C9.08415 15.5155 8.83804 14.9156 8.83804 14.2081V5.67132H10.6838V14.2081C10.6838 14.4081 10.7492 14.5734 10.8799 14.7042C11.0107 14.8349 11.176 14.9003 11.376 14.9003C11.576 14.9003 11.7413 14.8349 11.8721 14.7042C12.0028 14.5734 12.0682 14.4081 12.0682 14.2081V6.13276C12.0528 5.48674 11.8259 4.94069 11.3875 4.49463C10.9492 4.04856 10.407 3.82553 9.76094 3.82553C9.11491 3.82553 8.56887 4.04856 8.1228 4.49463C7.67673 4.94069 7.4537 5.48674 7.4537 6.13276V14.6695C7.43832 15.7616 7.81517 16.6884 8.58425 17.4498C9.35333 18.2112 10.2839 18.5918 11.376 18.5918C12.4527 18.5918 13.3679 18.2112 14.1216 17.4498C14.8753 16.6884 15.2675 15.7616 15.2983 14.6695V5.67132H17.1441V14.6695Z" fill="#787878"/>
</g>
</svg>
