<svg width="16" height="16" viewBox="0 0 16 16" fill="none" xmlns="http://www.w3.org/2000/svg">
<mask id="mask0_54_909" style="mask-type:alpha" maskUnits="userSpaceOnUse" x="0" y="0" width="16" height="16">
<rect x="0.5" y="15.5" width="15" height="15" transform="rotate(-90 0.5 15.5)" fill="currentColor"/>
</mask>
<g mask="url(#mask0_54_909)">
<path d="M3.625 8.625L1.125 8.625L1.125 7.375L3.625 7.375L3.625 8.625ZM5.34375 4.46875L4.48438 5.32813L2.6875 3.57813L3.57813 2.70313L5.34375 4.46875ZM8.625 3.625L7.375 3.625L7.375 1.125L8.625 1.125L8.625 3.625ZM14.875 8.625L12.375 8.625L12.375 7.375L14.875 7.375L14.875 8.625ZM5.3125 11.5313L3.57813 13.3125L2.70313 12.4219L4.46875 10.6563L5.3125 11.5313ZM13.3125 3.59375L11.5156 5.32813L10.6719 4.48438L12.3906 2.70313L13.3125 3.59375ZM8.625 14.875L7.375 14.875L7.375 12.375L8.625 12.375L8.625 14.875ZM13.3125 12.4219L12.4219 13.2969L10.6719 11.5469L11.0938 11.0938L11.5313 10.6406L13.3125 12.4219ZM11.75 8C11.75 9.04167 11.3854 9.92708 10.6563 10.6563C9.92708 11.3854 9.04167 11.75 8 11.75C6.95833 11.75 6.07292 11.3854 5.34375 10.6563C4.61458 9.92708 4.25 9.04167 4.25 8C4.25 6.95833 4.61458 6.07292 5.34375 5.34375C6.07292 4.61458 6.95833 4.25 8 4.25C9.04167 4.25 9.92708 4.61458 10.6563 5.34375C11.3854 6.07292 11.75 6.95833 11.75 8ZM10.5 8C10.5 7.3125 10.2552 6.72396 9.76563 6.23438C9.27604 5.74479 8.6875 5.5 8 5.5C7.3125 5.5 6.72396 5.74479 6.23438 6.23438C5.74479 6.72396 5.5 7.3125 5.5 8C5.5 8.6875 5.74479 9.27604 6.23438 9.76563C6.72396 10.2552 7.3125 10.5 8 10.5C8.6875 10.5 9.27604 10.2552 9.76563 9.76563C10.2552 9.27604 10.5 8.6875 10.5 8Z" fill="currentColor"/>
</g>
</svg>
