<svg width="16" height="16" viewBox="0 0 16 16" fill="none" xmlns="http://www.w3.org/2000/svg">
<mask id="mask0_54_918" style="mask-type:alpha" maskUnits="userSpaceOnUse" x="0" y="0" width="16" height="16">
<rect x="0.5" y="0.5" width="15" height="15" fill="currentColor"/>
</mask>
<g mask="url(#mask0_54_918)">
<path d="M3.625 13.625C3.28125 13.625 2.98698 13.5026 2.74219 13.2578C2.4974 13.013 2.375 12.7188 2.375 12.375V3.625C2.375 3.28125 2.4974 2.98698 2.74219 2.74219C2.98698 2.4974 3.28125 2.375 3.625 2.375H12.375C12.7188 2.375 13.013 2.4974 13.2578 2.74219C13.5026 2.98698 13.625 3.28125 13.625 3.625V12.375C13.625 12.7188 13.5026 13.013 13.2578 13.2578C13.013 13.5026 12.7188 13.625 12.375 13.625H3.625ZM3.625 12.375H12.375V3.625L3.625 12.375ZM11.1406 10.5H8.01563V9.5625H11.1406V10.5ZM3.9375 6.125H5.1875V7.375H6.125V6.125H7.375V5.1875H6.125V3.9375H5.1875V5.1875H3.9375V6.125Z" fill="currentColor"/>
</g>
</svg>
