<svg width="16" height="16" viewBox="0 0 16 16" fill="none" xmlns="http://www.w3.org/2000/svg">
<mask id="mask0_54_915" style="mask-type:alpha" maskUnits="userSpaceOnUse" x="0" y="0" width="16" height="16">
<rect x="0.5" y="0.5" width="15" height="15" fill="currentColor"/>
</mask>
<g mask="url(#mask0_54_915)">
<path d="M11.125 1.82812C11.8125 1.82812 12.401 2.07292 12.8906 2.5625C13.3802 3.05208 13.625 3.64062 13.625 4.32812C13.625 4.44271 13.6172 4.59635 13.6016 4.78906C13.5859 4.98177 13.5625 5.20312 13.5312 5.45312L12.6719 11.75C12.6198 12.1458 12.4401 12.4688 12.1328 12.7188C11.8255 12.9688 11.474 13.0938 11.0781 13.0938C10.8385 13.0938 10.6172 13.0417 10.4141 12.9375C10.2109 12.8333 10.0417 12.6875 9.90625 12.5L8.23438 10.0625C8.21354 10.0208 8.17969 9.99219 8.13281 9.97656C8.08594 9.96094 8.03646 9.95312 7.98438 9.95312C7.94271 9.95312 7.85938 10 7.73438 10.0938L6.10938 12.4531C5.96354 12.6615 5.78385 12.8203 5.57031 12.9297C5.35677 13.0391 5.13021 13.0938 4.89062 13.0938C4.49479 13.0938 4.14583 12.9661 3.84375 12.7109C3.54167 12.4557 3.36458 12.1302 3.3125 11.7344L2.46875 5.45312C2.4375 5.20312 2.41406 4.98177 2.39844 4.78906C2.38281 4.59635 2.375 4.44271 2.375 4.32812C2.375 3.64062 2.61979 3.05208 3.10938 2.5625C3.59896 2.07292 4.1875 1.82812 4.875 1.82812C5.25 1.82812 5.54948 1.8776 5.77344 1.97656C5.9974 2.07552 6.21354 2.18229 6.42188 2.29688C6.63021 2.41146 6.85156 2.51823 7.08594 2.61719C7.32031 2.71615 7.625 2.76562 8 2.76562C8.375 2.76562 8.67969 2.71615 8.91406 2.61719C9.14844 2.51823 9.36979 2.41146 9.57813 2.29688C9.78646 2.18229 10.0052 2.07552 10.2344 1.97656C10.4635 1.8776 10.7604 1.82812 11.125 1.82812ZM11.125 3.07812C10.8854 3.07812 10.6745 3.1276 10.4922 3.22656C10.3099 3.32552 10.1094 3.43229 9.89063 3.54688C9.67188 3.66146 9.41667 3.76823 9.125 3.86719C8.83333 3.96615 8.45833 4.01562 8 4.01562C7.54167 4.01562 7.16667 3.96615 6.875 3.86719C6.58333 3.76823 6.32812 3.66146 6.10938 3.54688C5.89062 3.43229 5.6901 3.32552 5.50781 3.22656C5.32552 3.1276 5.11458 3.07812 4.875 3.07812C4.53125 3.07812 4.23698 3.20052 3.99219 3.44531C3.7474 3.6901 3.625 3.98438 3.625 4.32812C3.625 4.41146 3.63021 4.53125 3.64062 4.6875C3.65104 4.84375 3.67188 5.02604 3.70312 5.23438L4.5625 11.5625C4.57292 11.6458 4.60938 11.7109 4.67188 11.7578C4.73438 11.8047 4.80729 11.8281 4.89062 11.8281C4.94271 11.8281 4.98958 11.8177 5.03125 11.7969C5.07292 11.776 5.10417 11.7448 5.125 11.7031L6.70312 9.39062C6.84896 9.18229 7.03646 9.01562 7.26562 8.89062C7.49479 8.76562 7.73958 8.70312 8 8.70312C8.26042 8.70312 8.50521 8.76562 8.73438 8.89062C8.96354 9.01562 9.15104 9.18229 9.29688 9.39062L10.9062 11.75C10.9271 11.7812 10.9531 11.8047 10.9844 11.8203C11.0156 11.8359 11.0521 11.8438 11.0938 11.8438C11.1771 11.8438 11.2526 11.8203 11.3203 11.7734C11.388 11.7266 11.4271 11.6615 11.4375 11.5781L12.2969 5.23438C12.3281 5.02604 12.349 4.84375 12.3594 4.6875C12.3698 4.53125 12.375 4.41146 12.375 4.32812C12.375 3.98438 12.2526 3.6901 12.0078 3.44531C11.763 3.20052 11.4688 3.07812 11.125 3.07812Z" fill="currentColor"/>
</g>
</svg>
