<svg width="21" height="21" viewBox="0 0 21 21" fill="none" xmlns="http://www.w3.org/2000/svg">
<mask id="mask0_54_1365" style="mask-type:alpha" maskUnits="userSpaceOnUse" x="0" y="0" width="21" height="21">
<rect x="0.5" y="0.5" width="20" height="20" fill="#606060"/>
</mask>
<g mask="url(#mask0_54_1365)">
<path d="M7.16671 11.3334H13.8334V9.66669H7.16671V11.3334ZM7.16671 13.8334H13.8334V12.1667H7.16671V13.8334ZM7.16671 16.3334H11.3334V14.6667H7.16671V16.3334ZM5.50004 18.8334C5.04171 18.8334 4.64935 18.6702 4.32296 18.3438C3.99657 18.0174 3.83337 17.625 3.83337 17.1667V3.83335C3.83337 3.37502 3.99657 2.98266 4.32296 2.65627C4.64935 2.32988 5.04171 2.16669 5.50004 2.16669H12.1667L17.1667 7.16669V17.1667C17.1667 17.625 17.0035 18.0174 16.6771 18.3438C16.3507 18.6702 15.9584 18.8334 15.5 18.8334H5.50004ZM11.3334 8.00002V3.83335H5.50004V17.1667H15.5V8.00002H11.3334Z" fill="#606060"/>
</g>
</svg>
