<svg width="16" height="16" viewBox="0 0 16 16" fill="none" xmlns="http://www.w3.org/2000/svg">
<mask id="mask0_54_912" style="mask-type:alpha" maskUnits="userSpaceOnUse" x="0" y="0" width="16" height="16">
<rect x="0.5" y="0.5" width="15" height="15" fill="currentColor"/>
</mask>
<g mask="url(#mask0_54_912)">
<path d="M1.75 15.5V13H14.25V15.5H1.75ZM4.25 10.5H5.125L10 5.64062L9.10938 4.75L4.25 9.625V10.5ZM3 11.75V9.09375L10 2.10938C10.1146 1.99479 10.2474 1.90625 10.3984 1.84375C10.5495 1.78125 10.7083 1.75 10.875 1.75C11.0417 1.75 11.2031 1.78125 11.3594 1.84375C11.5156 1.90625 11.6563 2 11.7813 2.125L12.6406 3C12.7656 3.11458 12.8568 3.25 12.9141 3.40625C12.9714 3.5625 13 3.72396 13 3.89062C13 4.04688 12.9714 4.20052 12.9141 4.35156C12.8568 4.5026 12.7656 4.64063 12.6406 4.76563L5.65625 11.75H3Z" fill="currentColor"/>
</g>
</svg>
