<svg width="20" height="21" viewBox="0 0 20 21" fill="#000" xmlns="http://www.w3.org/2000/svg">
<mask id="mask0_54_1372" style="mask-type:alpha" maskUnits="userSpaceOnUse" x="0" y="0" width="20" height="21">
<rect y="0.5" width="20" height="20" fill="black"/>
</mask>
<g mask="url(#mask0_54_1372)">
<path d="M4.16667 18C3.70833 18 3.31597 17.8368 2.98958 17.5104C2.66319 17.184 2.5 16.7917 2.5 16.3333V13H4.16667V16.3333H15.8333V4.66667H4.16667V8H2.5V4.66667C2.5 4.20833 2.66319 3.81597 2.98958 3.48958C3.31597 3.16319 3.70833 3 4.16667 3H15.8333C16.2917 3 16.684 3.16319 17.0104 3.48958C17.3368 3.81597 17.5 4.20833 17.5 4.66667V16.3333C17.5 16.7917 17.3368 17.184 17.0104 17.5104C16.684 17.8368 16.2917 18 15.8333 18H4.16667ZM8.75 14.6667L7.58333 13.4583L9.70833 11.3333H2.5V9.66667H9.70833L7.58333 7.54167L8.75 6.33333L12.9167 10.5L8.75 14.6667Z" fill="white"/>
</g>
</svg>
