<svg width="21" height="21" viewBox="0 0 21 21" fill="none" xmlns="http://www.w3.org/2000/svg">
<mask id="mask0_54_936" style="mask-type:alpha" maskUnits="userSpaceOnUse" x="0" y="0" width="21" height="21">
<rect x="0.5" y="0.5" width="20" height="20" fill="#178CF7"/>
</mask>
<g mask="url(#mask0_54_936)">
<path d="M5.91671 17.1666C4.65282 17.1666 3.57296 16.7291 2.67712 15.8541C1.78129 14.9791 1.33337 13.9097 1.33337 12.6458C1.33337 11.5624 1.65976 10.5972 2.31254 9.74995C2.96532 8.90273 3.81949 8.36106 4.87504 8.12495C5.22226 6.84717 5.91671 5.81245 6.95837 5.02078C8.00004 4.22912 9.1806 3.83328 10.5 3.83328C12.125 3.83328 13.5035 4.39925 14.6355 5.5312C15.7674 6.66314 16.3334 8.04162 16.3334 9.66662C17.2917 9.77773 18.0868 10.1909 18.7188 10.9062C19.3507 11.6215 19.6667 12.4583 19.6667 13.4166C19.6667 14.4583 19.3021 15.3437 18.573 16.0729C17.8438 16.802 16.9584 17.1666 15.9167 17.1666H11.3334C10.875 17.1666 10.4827 17.0034 10.1563 16.677C9.8299 16.3506 9.66671 15.9583 9.66671 15.4999V11.2083L8.33337 12.4999L7.16671 11.3333L10.5 7.99995L13.8334 11.3333L12.6667 12.4999L11.3334 11.2083V15.4999H15.9167C16.5 15.4999 16.9931 15.2986 17.3959 14.8958C17.7987 14.493 18 13.9999 18 13.4166C18 12.8333 17.7987 12.3402 17.3959 11.9374C16.9931 11.5347 16.5 11.3333 15.9167 11.3333H14.6667V9.66662C14.6667 8.51384 14.2605 7.5312 13.448 6.7187C12.6355 5.9062 11.6528 5.49995 10.5 5.49995C9.34726 5.49995 8.36462 5.9062 7.55212 6.7187C6.73962 7.5312 6.33337 8.51384 6.33337 9.66662H5.91671C5.11115 9.66662 4.42365 9.95134 3.85421 10.5208C3.28476 11.0902 3.00004 11.7777 3.00004 12.5833C3.00004 13.3888 3.28476 14.0763 3.85421 14.6458C4.42365 15.2152 5.11115 15.4999 5.91671 15.4999H8.00004V17.1666H5.91671Z" fill="#178CF7"/>
</g>
</svg>
