<svg width="21" height="21" viewBox="0 0 21 21" fill="none" xmlns="http://www.w3.org/2000/svg">
<mask id="mask0_54_1368" style="mask-type:alpha" maskUnits="userSpaceOnUse" x="0" y="0" width="21" height="21">
<rect x="0.5" y="0.5" width="20" height="20" fill="#606060"/>
</mask>
<g mask="url(#mask0_54_1368)">
<path d="M13.8333 7.16667V4.66667H7.16663V7.16667H5.49996V3H15.5V7.16667H13.8333ZM15.5 10.9167C15.7361 10.9167 15.934 10.8368 16.0937 10.6771C16.2534 10.5174 16.3333 10.3194 16.3333 10.0833C16.3333 9.84722 16.2534 9.64931 16.0937 9.48958C15.934 9.32986 15.7361 9.25 15.5 9.25C15.2638 9.25 15.0659 9.32986 14.9062 9.48958C14.7465 9.64931 14.6666 9.84722 14.6666 10.0833C14.6666 10.3194 14.7465 10.5174 14.9062 10.6771C15.0659 10.8368 15.2638 10.9167 15.5 10.9167ZM13.8333 16.3333V13H7.16663V16.3333H13.8333ZM15.5 18H5.49996V14.6667H2.16663V9.66667C2.16663 8.95833 2.40968 8.36458 2.89579 7.88542C3.3819 7.40625 3.97218 7.16667 4.66663 7.16667H16.3333C17.0416 7.16667 17.6354 7.40625 18.1145 7.88542C18.5937 8.36458 18.8333 8.95833 18.8333 9.66667V14.6667H15.5V18ZM17.1666 13V9.66667C17.1666 9.43056 17.0868 9.23264 16.927 9.07292C16.7673 8.91319 16.5694 8.83333 16.3333 8.83333H4.66663C4.43052 8.83333 4.2326 8.91319 4.07288 9.07292C3.91315 9.23264 3.83329 9.43056 3.83329 9.66667V13H5.49996V11.3333H15.5V13H17.1666Z" fill="#606060"/>
</g>
</svg>
