<svg width="16" height="16" viewBox="0 0 16 16" fill="none" xmlns="http://www.w3.org/2000/svg">
<mask id="mask0_54_921" style="mask-type:alpha" maskUnits="userSpaceOnUse" x="0" y="0" width="16" height="16">
<rect x="0.5" y="0.5" width="15" height="15" fill="currentColor"/>
</mask>
<g mask="url(#mask0_54_921)">
<path d="M8.65625 14.25V12.9688C9.01042 12.9167 9.35677 12.8229 9.69531 12.6875C10.0339 12.5521 10.3542 12.375 10.6562 12.1562L11.5312 13.0625C11.0938 13.3958 10.6354 13.6641 10.1563 13.8672C9.67708 14.0703 9.17708 14.1979 8.65625 14.25ZM7.40625 14.25C5.96875 14.0625 4.77604 13.4401 3.82812 12.3828C2.88021 11.3255 2.40625 10.0833 2.40625 8.65625C2.40625 7.875 2.55469 7.14323 2.85156 6.46094C3.14844 5.77865 3.54948 5.1849 4.05469 4.67969C4.5599 4.17448 5.15365 3.77344 5.83594 3.47656C6.51823 3.17969 7.25 3.03125 8.03125 3.03125H8.125L7.15625 2.0625L8.03125 1.15625L10.5312 3.65625L8.03125 6.15625L7.15625 5.28125L8.15625 4.28125H8.03125C6.8125 4.28125 5.77865 4.70573 4.92969 5.55469C4.08073 6.40365 3.65625 7.4375 3.65625 8.65625C3.65625 9.73958 4.01042 10.6901 4.71875 11.5078C5.42708 12.3255 6.32292 12.8125 7.40625 12.9688V14.25ZM12.4375 12.1562L11.5312 11.2812C11.75 10.9792 11.9271 10.6589 12.0625 10.3203C12.1979 9.98177 12.2917 9.63542 12.3438 9.28125H13.625C13.5729 9.80208 13.4453 10.3021 13.2422 10.7812C13.0391 11.2604 12.7708 11.7188 12.4375 12.1562ZM13.625 8.03125H12.3438C12.2917 7.67708 12.1979 7.33073 12.0625 6.99219C11.9271 6.65365 11.75 6.33333 11.5312 6.03125L12.4375 5.15625C12.7708 5.5625 13.0365 6.01042 13.2344 6.5C13.4323 6.98958 13.5625 7.5 13.625 8.03125Z" fill="currentColor"/>
</g>
</svg>
