<svg width="23" height="23" viewBox="0 0 23 23" fill="none" xmlns="http://www.w3.org/2000/svg">
<mask id="mask0_54_1337" style="mask-type:alpha" maskUnits="userSpaceOnUse" x="0" y="0" width="24" height="23">
<rect x="0.855957" y="0.415802" width="22.1495" height="22.1495" fill="#D9D9D9"/>
</mask>
<g mask="url(#mask0_54_1337)">
<path d="M9.39265 20.7196L9.02349 17.7663C8.82353 17.6894 8.63511 17.5971 8.45822 17.4894C8.28133 17.3818 8.10829 17.2664 7.93909 17.1433L5.19348 18.297L2.65552 13.9132L5.03197 12.1136C5.01659 12.0059 5.0089 11.9021 5.0089 11.8021V11.1791C5.0089 11.0792 5.01659 10.9753 5.03197 10.8677L2.65552 9.06801L5.19348 4.68426L7.93909 5.83788C8.10829 5.71482 8.28518 5.59946 8.46976 5.49179C8.65434 5.38412 8.83892 5.29183 9.02349 5.21492L9.39265 2.26166H14.4686L14.8377 5.21492C15.0377 5.29183 15.2261 5.38412 15.403 5.49179C15.5799 5.59946 15.7529 5.71482 15.9221 5.83788L18.6677 4.68426L21.2057 9.06801L18.8293 10.8677C18.8446 10.9753 18.8523 11.0792 18.8523 11.1791V11.8021C18.8523 11.9021 18.8369 12.0059 18.8062 12.1136L21.1826 13.9132L18.6447 18.297L15.9221 17.1433C15.7529 17.2664 15.5761 17.3818 15.3915 17.4894C15.2069 17.5971 15.0223 17.6894 14.8377 17.7663L14.4686 20.7196H9.39265ZM11.0077 18.8738H12.8304L13.1535 16.4281C13.6303 16.305 14.0725 16.1243 14.4801 15.8859C14.8877 15.6475 15.2607 15.3591 15.5991 15.0207L17.8833 15.9667L18.7831 14.3977L16.7989 12.898C16.8758 12.6827 16.9296 12.4558 16.9604 12.2174C16.9912 11.979 17.0065 11.7367 17.0065 11.4906C17.0065 11.2445 16.9912 11.0022 16.9604 10.7638C16.9296 10.5254 16.8758 10.2985 16.7989 10.0832L18.7831 8.58349L17.8833 7.01457L15.5991 7.98361C15.2607 7.62983 14.8877 7.33374 14.4801 7.09532C14.0725 6.85691 13.6303 6.67617 13.1535 6.55312L12.8535 4.10745H11.0308L10.7078 6.55312C10.2309 6.67617 9.78873 6.85691 9.38112 7.09532C8.9735 7.33374 8.6005 7.62214 8.26211 7.96054L5.97794 7.01457L5.07812 8.58349L7.06234 10.0601C6.98543 10.2908 6.9316 10.5216 6.90084 10.7523C6.87007 10.983 6.85469 11.2291 6.85469 11.4906C6.85469 11.7367 6.87007 11.9751 6.90084 12.2059C6.9316 12.4366 6.98543 12.6673 7.06234 12.898L5.07812 14.3977L5.97794 15.9667L8.26211 14.9976C8.6005 15.3514 8.9735 15.6475 9.38112 15.8859C9.78873 16.1243 10.2309 16.305 10.7078 16.4281L11.0077 18.8738ZM11.9768 14.7207C12.8689 14.7207 13.6303 14.4054 14.2609 13.7748C14.8916 13.1441 15.2069 12.3827 15.2069 11.4906C15.2069 10.5985 14.8916 9.83709 14.2609 9.20644C13.6303 8.5758 12.8689 8.26048 11.9768 8.26048C11.0692 8.26048 10.304 8.5758 9.68106 9.20644C9.0581 9.83709 8.74663 10.5985 8.74663 11.4906C8.74663 12.3827 9.0581 13.1441 9.68106 13.7748C10.304 14.4054 11.0692 14.7207 11.9768 14.7207Z" fill="#787878"/>
</g>
</svg>
