<svg width="16" height="16" viewBox="0 0 16 16" fill="none" xmlns="http://www.w3.org/2000/svg">
<mask id="mask0_54_903" style="mask-type:alpha" maskUnits="userSpaceOnUse" x="0" y="0" width="16" height="16">
<rect x="0.5" y="0.5" width="15" height="15" fill="currentColor"/>
</mask>
<g mask="url(#mask0_54_903)">
<path d="M12.75 13.625L8.8125 9.6875C8.5 9.9375 8.14062 10.1354 7.73438 10.2813C7.32812 10.4271 6.89583 10.5 6.4375 10.5C5.30208 10.5 4.34115 10.1068 3.55469 9.32031C2.76823 8.53385 2.375 7.57292 2.375 6.4375C2.375 5.30208 2.76823 4.34115 3.55469 3.55469C4.34115 2.76823 5.30208 2.375 6.4375 2.375C7.57292 2.375 8.53385 2.76823 9.32031 3.55469C10.1068 4.34115 10.5 5.30208 10.5 6.4375C10.5 6.89583 10.4271 7.32812 10.2813 7.73438C10.1354 8.14062 9.9375 8.5 9.6875 8.8125L13.625 12.75L12.75 13.625ZM6.4375 9.25C7.21875 9.25 7.88281 8.97656 8.42969 8.42969C8.97656 7.88281 9.25 7.21875 9.25 6.4375C9.25 5.65625 8.97656 4.99219 8.42969 4.44531C7.88281 3.89844 7.21875 3.625 6.4375 3.625C5.65625 3.625 4.99219 3.89844 4.44531 4.44531C3.89844 4.99219 3.625 5.65625 3.625 6.4375C3.625 7.21875 3.89844 7.88281 4.44531 8.42969C4.99219 8.97656 5.65625 9.25 6.4375 9.25ZM5.8125 8.3125V7.0625H4.5625V5.8125H5.8125V4.5625H7.0625V5.8125H8.3125V7.0625H7.0625V8.3125H5.8125Z" fill="currentColor"/>
</g>
</svg>
